<?xml version="1.0" encoding="utf-8"?>
<!-- Generator: Adobe Illustrator 16.0.0, SVG Export Plug-In . SVG Version: 6.00 Build 0)  -->
<!DOCTYPE svg PUBLIC "-//W3C//DTD SVG 1.1//EN" "http://www.w3.org/Graphics/SVG/1.1/DTD/svg11.dtd">
<svg version="1.1" id="Layer_1" xmlns="http://www.w3.org/2000/svg" xmlns:xlink="http://www.w3.org/1999/xlink" x="0px" y="0px"
	 width="400px" height="300px" viewBox="0 0 400 300" enable-background="new 0 0 400 300" xml:space="preserve">
<g>
	<path fill="#F40021" d="M268.04,74.507c-8.921,0-17.357,2.064-24.862,5.738C252.54,94.301,258,111.179,258,129.333
		c0,47.368-37.146,86.06-83.896,88.538l43.65,43.651l89.19-89.188c0.776-0.734,1.529-1.488,2.262-2.262l5.525-6.822
		c6.281-9.123,9.966-20.172,9.966-32.084C324.697,99.875,299.332,74.507,268.04,74.507z"/>
</g>
<g>
	<g id="XMLID_2_">
		
			<rect x="162.477" y="120.336" fill="#FFFFFF" stroke="#FFFFFF" stroke-width="2" stroke-miterlimit="10" width="15.729" height="15.729"/>
		
			<rect x="162.477" y="104.606" fill="#FFFFFF" stroke="#FFFFFF" stroke-width="2" stroke-miterlimit="10" width="15.729" height="15.729"/>
		
			<rect x="146.747" y="120.336" fill="#FFFFFF" stroke="#FFFFFF" stroke-width="2" stroke-miterlimit="10" width="15.729" height="15.729"/>
		
			<rect x="146.747" y="104.606" fill="#FFFFFF" stroke="#FFFFFF" stroke-width="2" stroke-miterlimit="10" width="15.729" height="15.729"/>
		
			<rect x="178.206" y="120.336" fill="#F40021" stroke="#FFFFFF" stroke-width="2" stroke-miterlimit="10" width="15.729" height="15.729"/>
		
			<rect x="178.206" y="104.606" fill="#F40021" stroke="#FFFFFF" stroke-width="2" stroke-miterlimit="10" width="15.729" height="15.729"/>
		
			<rect x="193.935" y="120.336" fill="#F40021" stroke="#FFFFFF" stroke-width="2" stroke-miterlimit="10" width="15.729" height="15.729"/>
		
			<rect x="193.935" y="104.606" fill="#F40021" stroke="#FFFFFF" stroke-width="2" stroke-miterlimit="10" width="15.729" height="15.729"/>
		
			<rect x="178.206" y="87.754" fill="#F40021" stroke="#FFFFFF" stroke-width="2" stroke-miterlimit="10" width="15.729" height="16.853"/>
		
			<rect x="146.747" y="87.754" fill="#F40021" stroke="#FFFFFF" stroke-width="2" stroke-miterlimit="10" width="15.729" height="16.853"/>
		
			<rect x="162.477" y="87.754" fill="#F40021" stroke="#FFFFFF" stroke-width="2" stroke-miterlimit="10" width="15.729" height="16.853"/>
		
			<rect x="131.018" y="104.606" fill="#F40021" stroke="#FFFFFF" stroke-width="2" stroke-miterlimit="10" width="15.729" height="15.729"/>
		
			<rect x="131.018" y="120.336" fill="#F40021" stroke="#FFFFFF" stroke-width="2" stroke-miterlimit="10" width="15.729" height="15.729"/>
		
			<rect x="162.477" y="136.065" fill="#F40021" stroke="#FFFFFF" stroke-width="2" stroke-miterlimit="10" width="15.729" height="15.729"/>
		
			<rect x="178.206" y="136.065" fill="#F40021" stroke="#FFFFFF" stroke-width="2" stroke-miterlimit="10" width="15.729" height="15.729"/>
		
			<rect x="146.747" y="136.065" fill="#F40021" stroke="#FFFFFF" stroke-width="2" stroke-miterlimit="10" width="15.729" height="15.729"/>
		
			<rect x="131.018" y="136.065" fill="#F40021" stroke="#FFFFFF" stroke-width="2" stroke-miterlimit="10" width="15.729" height="15.729"/>
		
			<rect x="242.246" y="151.795" fill="#F40021" stroke="#FFFFFF" stroke-width="2" stroke-miterlimit="10" width="15.729" height="15.729"/>
		
			<rect x="242.246" y="136.065" fill="#F40021" stroke="#FFFFFF" stroke-width="2" stroke-miterlimit="10" width="15.729" height="15.729"/>
		
			<rect x="242.246" y="120.336" fill="#F40021" stroke="#FFFFFF" stroke-width="2" stroke-miterlimit="10" width="15.729" height="15.729"/>
		
			<rect x="226.518" y="167.523" fill="#F40021" stroke="#FFFFFF" stroke-width="2" stroke-miterlimit="10" width="15.729" height="15.729"/>
		
			<rect x="226.518" y="151.795" fill="#F40021" stroke="#FFFFFF" stroke-width="2" stroke-miterlimit="10" width="15.729" height="15.729"/>
		
			<rect x="226.518" y="136.065" fill="#F40021" stroke="#FFFFFF" stroke-width="2" stroke-miterlimit="10" width="15.729" height="15.729"/>
		
			<rect x="209.664" y="183.253" fill="#F40021" stroke="#FFFFFF" stroke-width="2" stroke-miterlimit="10" width="16.854" height="15.729"/>
		
			<rect x="242.246" y="104.606" fill="#F40021" stroke="#FFFFFF" stroke-width="2" stroke-miterlimit="10" width="15.729" height="15.729"/>
		
			<rect x="242.246" y="87.754" fill="#F40021" stroke="#FFFFFF" stroke-width="2" stroke-miterlimit="10" width="15.729" height="16.853"/>
		
			<rect x="209.664" y="136.065" fill="#F40021" stroke="#FFFFFF" stroke-width="2" stroke-miterlimit="10" width="16.854" height="15.729"/>
		
			<rect x="209.664" y="120.336" fill="#F40021" stroke="#FFFFFF" stroke-width="2" stroke-miterlimit="10" width="16.854" height="15.729"/>
		
			<rect x="226.518" y="120.336" fill="#F40021" stroke="#FFFFFF" stroke-width="2" stroke-miterlimit="10" width="15.729" height="15.729"/>
		
			<rect x="226.518" y="104.606" fill="#F40021" stroke="#FFFFFF" stroke-width="2" stroke-miterlimit="10" width="15.729" height="15.729"/>
		
			<rect x="209.664" y="151.795" fill="#F40021" stroke="#FFFFFF" stroke-width="2" stroke-miterlimit="10" width="16.854" height="15.729"/>
		
			<rect x="162.477" y="167.523" fill="#F40021" stroke="#FFFFFF" stroke-width="2" stroke-miterlimit="10" width="15.729" height="15.729"/>
		
			<rect x="162.477" y="151.795" fill="#F40021" stroke="#FFFFFF" stroke-width="2" stroke-miterlimit="10" width="15.729" height="15.729"/>
		
			<rect x="193.935" y="167.523" fill="#F40021" stroke="#FFFFFF" stroke-width="2" stroke-miterlimit="10" width="15.729" height="15.729"/>
		
			<rect x="193.935" y="151.795" fill="#F40021" stroke="#FFFFFF" stroke-width="2" stroke-miterlimit="10" width="15.729" height="15.729"/>
		
			<rect x="178.206" y="167.523" fill="#F40021" stroke="#FFFFFF" stroke-width="2" stroke-miterlimit="10" width="15.729" height="15.729"/>
		
			<rect x="178.206" y="151.795" fill="#F40021" stroke="#FFFFFF" stroke-width="2" stroke-miterlimit="10" width="15.729" height="15.729"/>
		
			<rect x="209.664" y="167.523" fill="#F40021" stroke="#FFFFFF" stroke-width="2" stroke-miterlimit="10" width="16.854" height="15.729"/>
		
			<rect x="146.747" y="167.523" fill="#F40021" stroke="#FFFFFF" stroke-width="2" stroke-miterlimit="10" width="15.729" height="15.729"/>
		
			<rect x="146.747" y="151.795" fill="#F40021" stroke="#FFFFFF" stroke-width="2" stroke-miterlimit="10" width="15.729" height="15.729"/>
		
			<rect x="193.935" y="136.065" fill="#F40021" stroke="#FFFFFF" stroke-width="2" stroke-miterlimit="10" width="15.729" height="15.729"/>
		
			<rect x="131.018" y="151.795" fill="#F40021" stroke="#FFFFFF" stroke-width="2" stroke-miterlimit="10" width="15.729" height="15.729"/>
		
			<rect x="162.477" y="183.253" fill="#F40021" stroke="#FFFFFF" stroke-width="2" stroke-miterlimit="10" width="15.729" height="15.729"/>
		
			<rect x="193.935" y="183.253" fill="#F40021" stroke="#FFFFFF" stroke-width="2" stroke-miterlimit="10" width="15.729" height="15.729"/>
		
			<rect x="178.206" y="183.253" fill="#F40021" stroke="#FFFFFF" stroke-width="2" stroke-miterlimit="10" width="15.729" height="15.729"/>
		
			<rect x="178.206" y="198.982" fill="#F40021" stroke="#FFFFFF" stroke-width="2" stroke-miterlimit="10" width="15.729" height="15.729"/>
		
			<rect x="193.935" y="198.982" fill="#F40021" stroke="#FFFFFF" stroke-width="2" stroke-miterlimit="10" width="15.729" height="15.729"/>
		
			<rect x="226.518" y="87.754" fill="#F40021" stroke="#FFFFFF" stroke-width="2" stroke-miterlimit="10" width="15.729" height="16.853"/>
		
			<rect x="209.664" y="104.606" fill="#F40021" stroke="#FFFFFF" stroke-width="2" stroke-miterlimit="10" width="16.854" height="15.729"/>
		
			<rect x="193.935" y="87.754" fill="#F40021" stroke="#FFFFFF" stroke-width="2" stroke-miterlimit="10" width="15.729" height="16.853"/>
		
			<rect x="162.477" y="198.982" fill="#F40021" stroke="#FFFFFF" stroke-width="2" stroke-miterlimit="10" width="15.729" height="15.729"/>
		
			<rect x="146.747" y="183.253" fill="#F40021" stroke="#FFFFFF" stroke-width="2" stroke-miterlimit="10" width="15.729" height="15.729"/>
		
			<rect x="131.018" y="167.523" fill="#F40021" stroke="#FFFFFF" stroke-width="2" stroke-miterlimit="10" width="15.729" height="15.729"/>
		
			<rect x="115.289" y="151.795" fill="#F40021" stroke="#FFFFFF" stroke-width="2" stroke-miterlimit="10" width="15.729" height="15.729"/>
		
			<rect x="115.289" y="136.065" fill="#F40021" stroke="#FFFFFF" stroke-width="2" stroke-miterlimit="10" width="15.729" height="15.729"/>
		
			<rect x="115.289" y="120.336" fill="#F40021" stroke="#FFFFFF" stroke-width="2" stroke-miterlimit="10" width="15.729" height="15.729"/>
		
			<rect x="115.289" y="104.606" fill="#F40021" stroke="#FFFFFF" stroke-width="2" stroke-miterlimit="10" width="15.729" height="15.729"/>
		
			<rect x="131.018" y="87.754" fill="#F40021" stroke="#FFFFFF" stroke-width="2" stroke-miterlimit="10" width="15.729" height="16.853"/>
		
			<rect x="146.747" y="72.024" fill="#F40021" stroke="#FFFFFF" stroke-width="2" stroke-miterlimit="10" width="15.729" height="15.729"/>
		
			<rect x="162.477" y="72.024" fill="#F40021" stroke="#FFFFFF" stroke-width="2" stroke-miterlimit="10" width="15.729" height="15.729"/>
		
			<rect x="178.206" y="72.024" fill="#F40021" stroke="#FFFFFF" stroke-width="2" stroke-miterlimit="10" width="15.729" height="15.729"/>
	</g>
</g>
<path stroke="#FFFFFF" stroke-width="3" stroke-miterlimit="10" d="M173,57.168c42.433,0,76.832,34.399,76.832,76.832
	S215.433,210.832,173,210.832S96.168,176.433,96.168,134S130.567,57.168,173,57.168 M173,37.96c-52.957,0-96.04,43.083-96.04,96.04
	s43.083,96.039,96.04,96.039s96.04-43.082,96.04-96.039S225.957,37.96,173,37.96L173,37.96z"/>
</svg>
